<?xml version="1.0" encoding="UTF-8" standalone="no"?>
<!-- Created with Inkscape (http://www.inkscape.org/) -->

<svg
   xmlns:dc="http://purl.org/dc/elements/1.1/"
   xmlns:cc="http://creativecommons.org/ns#"
   xmlns:rdf="http://www.w3.org/1999/02/22-rdf-syntax-ns#"
   xmlns:svg="http://www.w3.org/2000/svg"
   xmlns="http://www.w3.org/2000/svg"
   xmlns:sodipodi="http://sodipodi.sourceforge.net/DTD/sodipodi-0.dtd"
   xmlns:inkscape="http://www.inkscape.org/namespaces/inkscape"
   width="137.04768mm"
   height="137.0477mm"
   viewBox="0 0 137.04768 137.0477"
   version="1.1"
   id="svg8"
   inkscape:export-filename="C:\Users\orflores\Documents\QtProjects\eRassini\icons\logo.png"
   inkscape:export-xdpi="18.533693"
   inkscape:export-ydpi="18.533693"
   inkscape:version="0.92.1 r15371"
   sodipodi:docname="eRassini.svg">
  <defs
     id="defs2" />
  <sodipodi:namedview
     id="base"
     pagecolor="#ffffff"
     bordercolor="#666666"
     borderopacity="1.0"
     inkscape:pageopacity="0.0"
     inkscape:pageshadow="2"
     inkscape:zoom="0.5"
     inkscape:cx="383.06177"
     inkscape:cy="374.37044"
     inkscape:document-units="mm"
     inkscape:current-layer="layer1"
     showgrid="false"
     showguides="true"
     fit-margin-top="2"
     fit-margin-left="2"
     fit-margin-right="2"
     fit-margin-bottom="2"
     inkscape:window-width="1366"
     inkscape:window-height="705"
     inkscape:window-x="-8"
     inkscape:window-y="-8"
     inkscape:window-maximized="1"
     inkscape:guide-bbox="true" />
  <metadata
     id="metadata5">
    <rdf:RDF>
      <cc:Work
         rdf:about="">
        <dc:format>image/svg+xml</dc:format>
        <dc:type
           rdf:resource="http://purl.org/dc/dcmitype/StillImage" />
        <dc:title />
      </cc:Work>
    </rdf:RDF>
  </metadata>
  <g
     inkscape:label="Layer 1"
     inkscape:groupmode="layer"
     id="layer1"
     transform="translate(-36.552574,-23.298827)">
    <rect
       style="opacity:1;fill:#cccccc;fill-opacity:1;stroke:none;stroke-width:1.82857144;stroke-linejoin:round;stroke-miterlimit:4;stroke-dasharray:none"
       id="rect4732-5"
       width="133.04762"
       height="133.04762"
       x="38.552605"
       y="25.298862"
       ry="3.6654136" />
    <path
       style="opacity:1;fill:#e6e6e6;fill-opacity:1;stroke:none;stroke-width:1.82857144;stroke-linejoin:round;stroke-miterlimit:4;stroke-dasharray:none"
       d="m 42.217985,25.298827 c -2.03064,0 -3.665411,1.634771 -3.665411,3.66541 V 154.68111 c 0,2.03064 1.634771,3.66541 3.665411,3.66541 h 55.058137 l -38.342363,-27.15597 2.237634,-23.52647 19.582738,-7.48559 18.931141,20.96255 3.280938,-50.01607 10.43606,-15.166517 32.7427,6.942212 25.45529,26.614397 V 28.964237 c 0,-2.030639 -1.63477,-3.66541 -3.6654,-3.66541 z"
       id="rect4732"
       inkscape:connector-curvature="0"
       sodipodi:nodetypes="sssscccccccccsss" />
    <g
       id="g4737"
       transform="translate(6.7011834,4.0421496)">
      <path
         style="fill:#f59331;stroke-width:0.04765887"
         d="m 129.47413,131.11544 c -0.34164,-0.0965 -0.57426,-0.20587 -0.89613,-0.42131 -0.23083,-0.1545 -2.39959,-2.44011 -9.36497,-9.86952 -4.98551,-5.31764 -9.15801,-9.77387 -9.27221,-9.90272 l -0.20763,-0.23426 1.03082,-12.878224 c 0.56696,-7.08303 0.93131,-13.035522 0.93727,-13.087422 0.004,-0.03217 0,0 -0.0258,-0.07466 0.1054,-0.02962 0.45759,0.02205 1.0465,-0.02429 2.65851,-0.20916 5.28129,-1.44864 7.26686,-3.43421 2.60317,-2.603169 3.84154,-6.162725 3.35604,-9.646571 -0.5452,-3.912327 -3.42588,-7.118568 -7.26077,-8.081351 -1.21548,-0.305151 -1.15952,-0.30197 -5.64468,-0.321342 -2.33507,-0.01009 -4.1117,4.33e-4 -4.13575,0.02445 -0.0232,0.02321 -1.03871,12.340036 -2.25674,27.370794 -1.73364,21.393476 -2.23487,27.408956 -2.30794,27.698446 -0.21666,0.85841 -0.81766,1.65189 -1.51538,2.00071 -0.68627,0.34311 -0.29339,0.32686 -7.54219,0.31185 l -6.50543,-0.0134 -0.30979,-0.11149 c -0.80523,-0.28982 -1.42184,-0.81878 -1.75176,-1.50276 -0.15472,-0.32075 -0.19288,-0.44874 -0.25051,-0.84018 -0.0288,-0.19595 0.22479,-3.5648 1.00467,-13.34448 1.58991,-19.937456 4.79564,-58.63785 4.88541,-58.977864 0.27284,-1.033524 1.07754,-1.834382 2.10859,-2.098524 0.24805,-0.06354 1.76621,-0.0703 12.90553,-0.05743 13.88765,0.01603 12.81885,-0.0056 14.84055,0.303097 6.80194,1.039229 12.82077,4.398093 17.10278,9.544345 4.40173,5.290153 6.67253,12.162874 6.35322,19.228421 -0.26966,5.966766 -2.07733,11.475219 -5.42493,16.531209 -2.61541,3.95013 -6.3327,7.57529 -10.32471,10.06881 -0.29008,0.18119 -0.45297,0.287182 -0.57057,0.38343 0.008,0.034 5.76785,5.940686 12.71413,13.125886 6.94628,7.1852 12.76582,13.21893 12.93231,13.40828 0.55142,0.62715 0.78774,1.24962 0.78208,2.06001 -0.009,1.27366 -0.78766,2.35462 -2.01414,2.79577 l -0.30978,0.11142 -10.58027,0.008 c -8.43329,0.006 -10.62379,-0.004 -10.79473,-0.0527 z"
         id="path4718"
         inkscape:connector-curvature="0"
         sodipodi:nodetypes="ccsccscccsssccscccccccscsscsscccsccccccc" />
      <path
         style="fill:#ee5929;stroke-width:0.04765887"
         d="m 129.33628,131.12072 c -0.35452,-0.0977 -0.78474,-0.32638 -1.09204,-0.58053 -0.39636,-0.32782 -18.62005,-19.7972 -18.62005,-19.89285 0,-0.0438 0.4611,-5.82372 1.02467,-12.844334 0.56356,-7.0206 1.02467,-12.82502 1.02467,-12.89872 0,-0.137311 0.005,-0.13758 0.002,-0.256963 0.0559,0.0235 0.27828,0.189653 0.36625,0.265963 0.12503,0.10869 4.03407,3.04539 8.68677,6.526 4.6527,3.48061 8.53385,6.464287 8.53385,6.499017 0,0.0746 -0.86066,0.636416 -1.81799,1.283597 -0.50806,0.32153 -0.6341,0.426621 -0.74907,0.469288 0.008,0.0466 5.69771,5.916752 12.644,13.101992 6.94627,7.18523 12.76582,13.21899 12.93231,13.40834 0.55141,0.62715 0.78773,1.24962 0.78207,2.06001 -0.009,1.27365 -0.78765,2.35462 -2.01414,2.79577 l -0.30978,0.11142 -10.58027,0.008 c -8.74444,0.006 -10.62072,-0.003 -10.81341,-0.0564 z M 86.17603,120.53239 c -0.46904,-0.0777 -1.06113,-0.35148 -1.44066,-0.66611 -0.40955,-0.33953 -0.80775,-0.93669 -0.91644,-1.37433 -0.12446,-0.50113 -0.1162,-0.62315 0.93056,-13.74958 1.58992,-19.937454 4.79565,-58.637852 4.88541,-58.977861 0.21944,-0.831221 0.80507,-1.542827 1.5659,-1.902764 0.59333,-0.280686 0.10237,-0.265715 8.71519,-0.265715 l 7.89572,0.0086 -0.0169,0.170086 c -0.0147,0.09829 -0.37147,4.478743 -0.79287,9.734324 -0.4214,5.255582 -0.78759,9.594452 -0.81376,9.641935 -0.0262,0.04747 -1.04375,12.379218 -2.26129,27.403855 -1.73292,21.38466 -2.23397,27.39783 -2.30703,27.68731 -0.14094,0.5584 -0.43767,1.08694 -0.83401,1.48554 -0.38945,0.39168 -0.76682,0.60847 -1.29378,0.74325 -0.35828,0.0916 -0.53936,0.094 -6.78252,0.0877 -3.52792,-0.004 -6.46802,-0.0154 -6.53355,-0.0262 z"
         id="path4716"
         inkscape:connector-curvature="0"
         sodipodi:nodetypes="ccsssccssccsccccscccccscssccscscccccc" />
      <path
         style="fill:#575759;stroke-width:0.04765887"
         d="m 129.13682,131.11505 c -0.29483,-0.0794 -0.5823,-0.23106 -0.86029,-0.43387 -0.10972,-0.08 -4.64388,-4.5315 -9.63836,-10.05042 l -9.02074,-9.96793 0.0263,-0.24312 c 0.0144,-0.13371 0.20049,-5.93715 0.75642,-12.896549 0.55592,-6.95939 1.1429,-12.881583 1.15962,-12.900643 0.0167,-0.0191 3.64266,3.544848 7.71797,7.629698 6.86071,6.87678 8.68686,8.364174 20.55731,20.661344 8.40313,8.70522 12.74346,13.40025 12.90568,13.6323 0.60836,0.87019 0.65663,2.0352 0.15515,3.03203 -0.23852,0.47415 -0.9133,1.17094 -1.39194,1.4035 -0.70754,0.34379 0.20332,0.24242 -11.36899,0.23895 -8.81718,-0.002 -10.62051,-0.0677 -10.75836,-0.0624 z M 86.044453,120.52658 c -0.51706,-0.11105 -1.07046,-0.32822 -1.4565,-0.71661 -0.5441,-0.54743 -0.862028,-1.21584 -0.861328,-1.93408 6e-4,-0.61699 1.724364,-23.354904 3.814784,-48.708787 2.06244,-25.014651 1.829308,-23.141924 2.404949,-24.184656 0.383496,-0.546241 0.776701,-0.919605 1.299017,-1.148522 0.678977,-0.297577 0.04067,-0.263005 8.721101,-0.249599 l 7.845234,0.01927 -0.81284,9.621612 c -0.42433,5.255581 -0.63026,9.736809 -0.65973,9.972717 -0.0295,0.235915 -0.93791,12.499438 -2.14332,27.401175 -1.71582,21.21172 -2.31233,27.27709 -2.38612,27.57558 -0.15044,0.60863 -0.44197,1.13726 -0.88326,1.57864 -0.43244,0.43256 -0.88457,0.68442 -1.412327,0.79626 -0.47383,0.10039 -12.927808,0.0924 -13.396578,-0.008 z"
         id="path4710"
         inkscape:connector-curvature="0"
         sodipodi:nodetypes="ccsccscssccccccccsscscscscccccc" />
    </g>
    <text
       xml:space="preserve"
       style="font-style:normal;font-weight:normal;font-size:74.74517059px;line-height:1.25;font-family:sans-serif;letter-spacing:0px;word-spacing:0px;fill:#f59331;fill-opacity:1;stroke:none;stroke-width:1.86862934"
       x="49.739548"
       y="134.74718"
       id="text4726"><tspan
         sodipodi:role="line"
         id="tspan4724"
         x="49.739548"
         y="134.74718"
         style="font-style:normal;font-variant:normal;font-weight:normal;font-stretch:normal;font-family:'Bauhaus 93';-inkscape-font-specification:'Bauhaus 93, ';fill:#f59331;fill-opacity:1;stroke-width:1.86862934">e</tspan></text>
    <path
       sodipodi:nodetypes="cccc"
       inkscape:connector-curvature="0"
       id="path4808"
       d="m 75.095348,121.7784 5.028008,11.21363 c 0.923082,-0.52646 1.879658,-1.17759 2.806331,-1.88258 z"
       style="fill:#ee5929;fill-opacity:1;stroke:none;stroke-width:0.26458332px;stroke-linecap:butt;stroke-linejoin:miter;stroke-opacity:1" />
  </g>
</svg>
